# xmcd CD database file
#
# Track frame offsets:
#	150
#	21937
#	38700
#	60450
#
# Disc length: 1026 seconds
#
# Revision: 0
# Processed by: cddbd v1.5PL3 Copyright (c) Steve Scherf et al.
# Submitted via: CDex 1.51
#
DISCID=29040004
DTITLE=平愛梨 - Wish
DYEAR=2000
DGENRE=JPop
TTITLE0=Wish
TTITLE1=嵐が丘
TTITLE2=Wish (instrumental)
TTITLE3=嵐が丘 (instrumental)
EXTD=YEAR: 2000
EXTT0=
EXTT1=
EXTT2=
EXTT3=
PLAYORDER=
